<svg xmlns="http://www.w3.org/2000/svg" width="196.478" height="25.483" viewBox="0 0 196.478 25.483">
  <g id="sansin_logo" data-name="sansin logo" transform="translate(-862 -48)">
    <path id="Path_1" data-name="Path 1" d="M0,81.383A1.9,1.9,0,0,1,1.9,79.45a1.922,1.922,0,0,1,1.933,1.933A1.952,1.952,0,0,1,1.9,83.348,1.925,1.925,0,0,1,0,81.383Z" transform="translate(862.002 -9.911)" fill="#ffaf75"/>
    <path id="Path_2" data-name="Path 2" d="M61.76,22.23,62.8,20.189a12.3,12.3,0,0,0,8.266,3.042c4.687,0,6.726-1.968,6.726-4.435,0-6.867-15.42-2.659-15.42-11.926C62.367,3.185,65.23,0,71.6,0a14.062,14.062,0,0,1,7.764,2.218l-.895,2.12A12.894,12.894,0,0,0,71.6,2.253c-4.579,0-6.62,2.041-6.62,4.546,0,6.867,15.42,2.711,15.42,11.842,0,3.684-2.933,6.843-9.337,6.843C67.3,25.483,63.62,24.15,61.76,22.23Z" transform="translate(816.984 48)" fill="#ffaf75"/>
    <path id="Path_3" data-name="Path 3" d="M185.609.79H183L171.55,25.834H174.3l3-6.688L178.276,17l6.01-13.455L190.3,17l.965,2.147,3.007,6.688h2.79Z" transform="translate(736.958 47.424)" fill="#ffaf75"/>
    <path id="Path_4" data-name="Path 4" d="M336.449.79V25.834h-2.182L318.166,5.5V25.834H315.52V.79H317.7l16.136,20.333V.79Z" transform="translate(632.018 47.424)" fill="#ffaf75"/>
    <path id="Path_5" data-name="Path 5" d="M448.53,22.23l1.038-2.041a12.3,12.3,0,0,0,8.266,3.042c4.687,0,6.726-1.968,6.726-4.435,0-6.87-15.42-2.649-15.42-11.915C449.14,3.185,452,0,458.371,0a14.069,14.069,0,0,1,7.764,2.218l-.895,2.12a12.894,12.894,0,0,0-6.87-2.077c-4.579,0-6.62,2.041-6.62,4.546,0,6.867,15.42,2.711,15.42,11.842,0,3.684-2.933,6.834-9.337,6.834C454.079,25.483,450.392,24.15,448.53,22.23Z" transform="translate(535.067 48)" fill="#ffaf75"/>
    <path id="Path_6" data-name="Path 6" d="M573.11.79h2.646V25.834H573.11Z" transform="translate(444.261 47.424)" fill="#ffaf75"/>
    <path id="Path_7" data-name="Path 7" d="M668.5.79V25.834h-2.169L650.228,5.5V25.834H647.58V.79h2.182L665.9,21.123V.79Z" transform="translate(389.98 47.424)" fill="#ffaf75"/>
  </g>
</svg>
