<svg xmlns="http://www.w3.org/2000/svg" width="129.812" height="16.837" viewBox="0 0 129.812 16.837">
  <g id="sansin_logo" data-name="sansin logo" transform="translate(-122.5 -38)">
    <path id="Path_1" data-name="Path 1" d="M0,80.727A1.254,1.254,0,0,1,1.252,79.45,1.27,1.27,0,0,1,2.53,80.727a1.29,1.29,0,0,1-1.277,1.3A1.272,1.272,0,0,1,0,80.727Z" transform="translate(122.502 -27.219)" fill="#ffb678"/>
    <path id="Path_2" data-name="Path 2" d="M61.76,14.687l.684-1.349a8.126,8.126,0,0,0,5.461,2.01c3.1,0,4.444-1.3,4.444-2.93,0-4.537-10.188-1.757-10.188-7.879C62.161,2.1,64.053,0,68.26,0a9.291,9.291,0,0,1,5.13,1.465l-.591,1.4A8.519,8.519,0,0,0,68.26,1.488c-3.025,0-4.374,1.349-4.374,3,0,4.537,10.188,1.791,10.188,7.824,0,2.434-1.938,4.521-6.169,4.521A9.009,9.009,0,0,1,61.76,14.687Z" transform="translate(71.802 38)" fill="#ffb678"/>
    <path id="Path_3" data-name="Path 3" d="M180.839.79h-1.725L171.55,17.337h1.82l1.985-4.419.639-1.419,3.971-8.889,3.971,8.889.638,1.419,1.986,4.419H188.4Z" transform="translate(-18.323 37.352)" fill="#ffb678"/>
    <path id="Path_4" data-name="Path 4" d="M329.348.79V17.337h-1.442L317.268,3.9V17.337H315.52V.79h1.442l10.661,13.434V.79Z" transform="translate(-136.505 37.352)" fill="#ffb678"/>
    <path id="Path_5" data-name="Path 5" d="M448.53,14.687l.686-1.349a8.126,8.126,0,0,0,5.461,2.01c3.1,0,4.444-1.3,4.444-2.93,0-4.539-10.188-1.75-10.188-7.872,0-2.441,1.891-4.546,6.1-4.546a9.3,9.3,0,0,1,5.13,1.465l-.591,1.4a8.519,8.519,0,0,0-4.539-1.372c-3.025,0-4.374,1.349-4.374,3,0,4.537,10.188,1.791,10.188,7.824,0,2.434-1.938,4.515-6.169,4.515A9.021,9.021,0,0,1,448.53,14.687Z" transform="translate(-245.691 38)" fill="#ffb678"/>
    <path id="Path_6" data-name="Path 6" d="M573.11.79h1.748V17.337H573.11Z" transform="translate(-347.957 37.352)" fill="#ffb678"/>
    <path id="Path_7" data-name="Path 7" d="M661.4.79V17.337h-1.433L649.33,3.9V17.337h-1.75V.79h1.442l10.661,13.434V.79Z" transform="translate(-409.088 37.352)" fill="#ffb678"/>
  </g>
</svg>
